<mxfile host="app.diagrams.net" modified="2024-02-07T12:00:58.170Z" agent="Mozilla/5.0 (Windows NT 10.0; Win64; x64) AppleWebKit/537.36 (KHTML, like Gecko) Chrome/121.0.0.0 Safari/537.36" etag="baqejsoOS9z-8GhlPacR" version="23.1.1" type="github">
  <diagram id="R2lEEEUBdFMjLlhIrx00" name="Page-1">
    <mxGraphModel dx="1900" dy="1703" grid="1" gridSize="10" guides="1" tooltips="1" connect="1" arrows="1" fold="1" page="1" pageScale="1" pageWidth="850" pageHeight="1100" math="0" shadow="0" extFonts="Permanent Marker^https://fonts.googleapis.com/css?family=Permanent+Marker">
      <root>
        <mxCell id="0" />
        <mxCell id="1" parent="0" />
        <mxCell id="C-vyLk0tnHw3VtMMgP7b-23" value="Base" style="shape=table;startSize=30;container=1;collapsible=1;childLayout=tableLayout;fixedRows=1;rowLines=0;fontStyle=1;align=center;resizeLast=1;" parent="1" vertex="1">
          <mxGeometry x="-10" y="210" width="250" height="90" as="geometry" />
        </mxCell>
        <mxCell id="C-vyLk0tnHw3VtMMgP7b-24" value="" style="shape=partialRectangle;collapsible=0;dropTarget=0;pointerEvents=0;fillColor=none;points=[[0,0.5],[1,0.5]];portConstraint=eastwest;top=0;left=0;right=0;bottom=1;" parent="C-vyLk0tnHw3VtMMgP7b-23" vertex="1">
          <mxGeometry y="30" width="250" height="30" as="geometry" />
        </mxCell>
        <mxCell id="C-vyLk0tnHw3VtMMgP7b-25" value="PK" style="shape=partialRectangle;overflow=hidden;connectable=0;fillColor=none;top=0;left=0;bottom=0;right=0;fontStyle=1;" parent="C-vyLk0tnHw3VtMMgP7b-24" vertex="1">
          <mxGeometry width="30" height="30" as="geometry">
            <mxRectangle width="30" height="30" as="alternateBounds" />
          </mxGeometry>
        </mxCell>
        <mxCell id="C-vyLk0tnHw3VtMMgP7b-26" value="Base ID" style="shape=partialRectangle;overflow=hidden;connectable=0;fillColor=none;top=0;left=0;bottom=0;right=0;align=left;spacingLeft=6;fontStyle=5;" parent="C-vyLk0tnHw3VtMMgP7b-24" vertex="1">
          <mxGeometry x="30" width="220" height="30" as="geometry">
            <mxRectangle width="220" height="30" as="alternateBounds" />
          </mxGeometry>
        </mxCell>
        <mxCell id="C-vyLk0tnHw3VtMMgP7b-27" value="" style="shape=partialRectangle;collapsible=0;dropTarget=0;pointerEvents=0;fillColor=none;points=[[0,0.5],[1,0.5]];portConstraint=eastwest;top=0;left=0;right=0;bottom=0;" parent="C-vyLk0tnHw3VtMMgP7b-23" vertex="1">
          <mxGeometry y="60" width="250" height="30" as="geometry" />
        </mxCell>
        <mxCell id="C-vyLk0tnHw3VtMMgP7b-28" value="" style="shape=partialRectangle;overflow=hidden;connectable=0;fillColor=none;top=0;left=0;bottom=0;right=0;" parent="C-vyLk0tnHw3VtMMgP7b-27" vertex="1">
          <mxGeometry width="30" height="30" as="geometry">
            <mxRectangle width="30" height="30" as="alternateBounds" />
          </mxGeometry>
        </mxCell>
        <mxCell id="C-vyLk0tnHw3VtMMgP7b-29" value="Base Name" style="shape=partialRectangle;overflow=hidden;connectable=0;fillColor=none;top=0;left=0;bottom=0;right=0;align=left;spacingLeft=6;" parent="C-vyLk0tnHw3VtMMgP7b-27" vertex="1">
          <mxGeometry x="30" width="220" height="30" as="geometry">
            <mxRectangle width="220" height="30" as="alternateBounds" />
          </mxGeometry>
        </mxCell>
        <mxCell id="XFziTfGbW6GDm8dm62b6-1" style="edgeStyle=orthogonalEdgeStyle;rounded=0;orthogonalLoop=1;jettySize=auto;html=1;exitX=1;exitY=0.25;exitDx=0;exitDy=0;" parent="1" source="C-vyLk0tnHw3VtMMgP7b-23" edge="1">
          <mxGeometry relative="1" as="geometry">
            <mxPoint x="480" y="100" as="targetPoint" />
            <Array as="points">
              <mxPoint x="480" y="243" />
            </Array>
            <mxPoint x="320" y="210" as="sourcePoint" />
          </mxGeometry>
        </mxCell>
        <mxCell id="XFziTfGbW6GDm8dm62b6-3" value="Currently Holds" style="edgeLabel;html=1;align=center;verticalAlign=middle;resizable=0;points=[];" parent="XFziTfGbW6GDm8dm62b6-1" vertex="1" connectable="0">
          <mxGeometry x="-0.255" relative="1" as="geometry">
            <mxPoint x="44" y="-1" as="offset" />
          </mxGeometry>
        </mxCell>
        <mxCell id="XFziTfGbW6GDm8dm62b6-7" style="edgeStyle=orthogonalEdgeStyle;rounded=0;orthogonalLoop=1;jettySize=auto;html=1;" parent="1" edge="1">
          <mxGeometry relative="1" as="geometry">
            <mxPoint x="778" y="230" as="targetPoint" />
            <Array as="points">
              <mxPoint x="720" y="30" />
              <mxPoint x="778" y="30" />
            </Array>
            <mxPoint x="720" y="30" as="sourcePoint" />
          </mxGeometry>
        </mxCell>
        <mxCell id="XFziTfGbW6GDm8dm62b6-39" value="Is Booked in" style="edgeLabel;html=1;align=center;verticalAlign=middle;resizable=0;points=[];" parent="XFziTfGbW6GDm8dm62b6-7" vertex="1" connectable="0">
          <mxGeometry x="0.2363" y="3" relative="1" as="geometry">
            <mxPoint as="offset" />
          </mxGeometry>
        </mxCell>
        <mxCell id="XFziTfGbW6GDm8dm62b6-15" style="edgeStyle=orthogonalEdgeStyle;rounded=0;orthogonalLoop=1;jettySize=auto;html=1;entryX=1;entryY=0.5;entryDx=0;entryDy=0;" parent="1" edge="1">
          <mxGeometry relative="1" as="geometry">
            <mxPoint x="745" y="480" as="sourcePoint" />
            <mxPoint x="550" y="605" as="targetPoint" />
            <Array as="points">
              <mxPoint x="745.5" y="605" />
            </Array>
          </mxGeometry>
        </mxCell>
        <mxCell id="XFziTfGbW6GDm8dm62b6-29" value="Is Made By" style="edgeLabel;html=1;align=center;verticalAlign=middle;resizable=0;points=[];" parent="XFziTfGbW6GDm8dm62b6-15" vertex="1" connectable="0">
          <mxGeometry x="-0.0392" y="-2" relative="1" as="geometry">
            <mxPoint y="1" as="offset" />
          </mxGeometry>
        </mxCell>
        <mxCell id="XFziTfGbW6GDm8dm62b6-22" style="edgeStyle=orthogonalEdgeStyle;rounded=0;orthogonalLoop=1;jettySize=auto;html=1;exitX=1;exitY=0.5;exitDx=0;exitDy=0;" parent="1" source="C-vyLk0tnHw3VtMMgP7b-24" edge="1">
          <mxGeometry relative="1" as="geometry">
            <mxPoint x="240" y="260" as="sourcePoint" />
            <mxPoint x="520" y="100" as="targetPoint" />
            <Array as="points">
              <mxPoint x="520" y="255" />
            </Array>
          </mxGeometry>
        </mxCell>
        <mxCell id="XFziTfGbW6GDm8dm62b6-25" value="Is a Home Base to" style="edgeLabel;html=1;align=center;verticalAlign=middle;resizable=0;points=[];" parent="XFziTfGbW6GDm8dm62b6-22" vertex="1" connectable="0">
          <mxGeometry x="-0.243" y="3" relative="1" as="geometry">
            <mxPoint y="3" as="offset" />
          </mxGeometry>
        </mxCell>
        <mxCell id="XFziTfGbW6GDm8dm62b6-35" style="edgeStyle=orthogonalEdgeStyle;rounded=0;orthogonalLoop=1;jettySize=auto;html=1;entryX=0.258;entryY=1.047;entryDx=0;entryDy=0;entryPerimeter=0;" parent="1" edge="1" target="C-vyLk0tnHw3VtMMgP7b-27">
          <mxGeometry relative="1" as="geometry">
            <mxPoint x="50" y="310" as="targetPoint" />
            <mxPoint x="620" y="347" as="sourcePoint" />
            <Array as="points">
              <mxPoint x="620" y="348" />
              <mxPoint x="55" y="348" />
            </Array>
          </mxGeometry>
        </mxCell>
        <mxCell id="XFziTfGbW6GDm8dm62b6-36" value="Booked From" style="edgeLabel;html=1;align=center;verticalAlign=middle;resizable=0;points=[];" parent="XFziTfGbW6GDm8dm62b6-35" vertex="1" connectable="0">
          <mxGeometry x="0.0918" y="-4" relative="1" as="geometry">
            <mxPoint x="71" y="1" as="offset" />
          </mxGeometry>
        </mxCell>
        <mxCell id="XFziTfGbW6GDm8dm62b6-37" style="edgeStyle=orthogonalEdgeStyle;rounded=0;orthogonalLoop=1;jettySize=auto;html=1;exitX=0;exitY=0.793;exitDx=0;exitDy=0;exitPerimeter=0;entryX=0.718;entryY=1.127;entryDx=0;entryDy=0;entryPerimeter=0;" parent="1" source="XFziTfGbW6GDm8dm62b6-12" edge="1" target="C-vyLk0tnHw3VtMMgP7b-27">
          <mxGeometry relative="1" as="geometry">
            <Array as="points">
              <mxPoint x="620" y="320" />
              <mxPoint x="170" y="320" />
            </Array>
            <mxPoint x="660" y="320" as="sourcePoint" />
            <mxPoint x="240" y="320" as="targetPoint" />
          </mxGeometry>
        </mxCell>
        <mxCell id="XFziTfGbW6GDm8dm62b6-38" value="Booked To" style="edgeLabel;html=1;align=center;verticalAlign=middle;resizable=0;points=[];" parent="XFziTfGbW6GDm8dm62b6-37" vertex="1" connectable="0">
          <mxGeometry x="0.5079" y="1" relative="1" as="geometry">
            <mxPoint x="41" y="-1" as="offset" />
          </mxGeometry>
        </mxCell>
        <mxCell id="uWBuWXja9LEsh-4lgXYK-19" style="edgeStyle=orthogonalEdgeStyle;rounded=0;orthogonalLoop=1;jettySize=auto;html=1;entryX=0;entryY=0.5;entryDx=0;entryDy=0;" parent="1" edge="1">
          <mxGeometry relative="1" as="geometry">
            <mxPoint x="210" y="439.5" as="sourcePoint" />
            <mxPoint x="295" y="439.5" as="targetPoint" />
          </mxGeometry>
        </mxCell>
        <mxCell id="uWBuWXja9LEsh-4lgXYK-20" value="Is Part of" style="edgeLabel;html=1;align=center;verticalAlign=middle;resizable=0;points=[];" parent="uWBuWXja9LEsh-4lgXYK-19" vertex="1" connectable="0">
          <mxGeometry x="0.1477" y="2" relative="1" as="geometry">
            <mxPoint x="-9" y="1" as="offset" />
          </mxGeometry>
        </mxCell>
        <mxCell id="uWBuWXja9LEsh-4lgXYK-27" style="edgeStyle=orthogonalEdgeStyle;rounded=0;orthogonalLoop=1;jettySize=auto;html=1;" parent="1" edge="1">
          <mxGeometry relative="1" as="geometry">
            <mxPoint x="290" y="-10" as="targetPoint" />
            <mxPoint x="400" y="-10" as="sourcePoint" />
            <Array as="points">
              <mxPoint x="370" y="-10" />
              <mxPoint x="370" y="-10" />
            </Array>
          </mxGeometry>
        </mxCell>
        <mxCell id="uWBuWXja9LEsh-4lgXYK-28" value="Is of Type" style="edgeLabel;html=1;align=center;verticalAlign=middle;resizable=0;points=[];" parent="uWBuWXja9LEsh-4lgXYK-27" vertex="1" connectable="0">
          <mxGeometry x="0.2364" y="-2" relative="1" as="geometry">
            <mxPoint as="offset" />
          </mxGeometry>
        </mxCell>
        <mxCell id="uWBuWXja9LEsh-4lgXYK-9" value="DriverBooking" style="shape=table;startSize=30;container=1;collapsible=1;childLayout=tableLayout;fixedRows=1;rowLines=0;fontStyle=1;align=center;resizeLast=1;" parent="1" vertex="1">
          <mxGeometry x="295" y="360" width="250" height="120" as="geometry" />
        </mxCell>
        <mxCell id="uWBuWXja9LEsh-4lgXYK-10" value="" style="shape=partialRectangle;collapsible=0;dropTarget=0;pointerEvents=0;fillColor=none;points=[[0,0.5],[1,0.5]];portConstraint=eastwest;top=0;left=0;right=0;bottom=1;" parent="uWBuWXja9LEsh-4lgXYK-9" vertex="1">
          <mxGeometry y="30" width="250" height="30" as="geometry" />
        </mxCell>
        <mxCell id="uWBuWXja9LEsh-4lgXYK-11" value="PK" style="shape=partialRectangle;overflow=hidden;connectable=0;fillColor=none;top=0;left=0;bottom=0;right=0;fontStyle=1;" parent="uWBuWXja9LEsh-4lgXYK-10" vertex="1">
          <mxGeometry width="30" height="30" as="geometry">
            <mxRectangle width="30" height="30" as="alternateBounds" />
          </mxGeometry>
        </mxCell>
        <mxCell id="uWBuWXja9LEsh-4lgXYK-12" value="Driver ID" style="shape=partialRectangle;overflow=hidden;connectable=0;fillColor=none;top=0;left=0;bottom=0;right=0;align=left;spacingLeft=6;fontStyle=5;" parent="uWBuWXja9LEsh-4lgXYK-10" vertex="1">
          <mxGeometry x="30" width="220" height="30" as="geometry">
            <mxRectangle width="220" height="30" as="alternateBounds" />
          </mxGeometry>
        </mxCell>
        <mxCell id="uWBuWXja9LEsh-4lgXYK-13" value="" style="shape=partialRectangle;collapsible=0;dropTarget=0;pointerEvents=0;fillColor=none;points=[[0,0.5],[1,0.5]];portConstraint=eastwest;top=0;left=0;right=0;bottom=0;" parent="uWBuWXja9LEsh-4lgXYK-9" vertex="1">
          <mxGeometry y="60" width="250" height="30" as="geometry" />
        </mxCell>
        <mxCell id="uWBuWXja9LEsh-4lgXYK-14" value="PK" style="shape=partialRectangle;overflow=hidden;connectable=0;fillColor=none;top=0;left=0;bottom=1;right=0;fontStyle=1" parent="uWBuWXja9LEsh-4lgXYK-13" vertex="1">
          <mxGeometry width="30" height="30" as="geometry">
            <mxRectangle width="30" height="30" as="alternateBounds" />
          </mxGeometry>
        </mxCell>
        <mxCell id="uWBuWXja9LEsh-4lgXYK-15" value="Booking ID" style="shape=partialRectangle;overflow=hidden;connectable=0;fillColor=none;top=0;left=0;bottom=1;right=0;align=left;spacingLeft=6;fontStyle=5" parent="uWBuWXja9LEsh-4lgXYK-13" vertex="1">
          <mxGeometry x="30" width="220" height="30" as="geometry">
            <mxRectangle width="220" height="30" as="alternateBounds" />
          </mxGeometry>
        </mxCell>
        <mxCell id="uWBuWXja9LEsh-4lgXYK-16" value="" style="shape=partialRectangle;collapsible=0;dropTarget=0;pointerEvents=0;fillColor=none;points=[[0,0.5],[1,0.5]];portConstraint=eastwest;top=0;left=0;right=0;bottom=0;" parent="uWBuWXja9LEsh-4lgXYK-9" vertex="1">
          <mxGeometry y="90" width="250" height="30" as="geometry" />
        </mxCell>
        <mxCell id="uWBuWXja9LEsh-4lgXYK-17" value="" style="shape=partialRectangle;overflow=hidden;connectable=0;fillColor=none;top=0;left=0;bottom=0;right=0;" parent="uWBuWXja9LEsh-4lgXYK-16" vertex="1">
          <mxGeometry width="30" height="30" as="geometry">
            <mxRectangle width="30" height="30" as="alternateBounds" />
          </mxGeometry>
        </mxCell>
        <mxCell id="uWBuWXja9LEsh-4lgXYK-18" value="Is a Primary Driver" style="shape=partialRectangle;overflow=hidden;connectable=0;fillColor=none;top=0;left=0;bottom=0;right=0;align=left;spacingLeft=6;" parent="uWBuWXja9LEsh-4lgXYK-16" vertex="1">
          <mxGeometry x="30" width="220" height="30" as="geometry">
            <mxRectangle width="220" height="30" as="alternateBounds" />
          </mxGeometry>
        </mxCell>
        <mxCell id="uWBuWXja9LEsh-4lgXYK-21" style="edgeStyle=orthogonalEdgeStyle;rounded=0;orthogonalLoop=1;jettySize=auto;html=1;" parent="1" edge="1">
          <mxGeometry relative="1" as="geometry">
            <mxPoint x="545" y="435" as="sourcePoint" />
            <mxPoint x="620" y="435" as="targetPoint" />
          </mxGeometry>
        </mxCell>
        <mxCell id="uWBuWXja9LEsh-4lgXYK-22" value="Is Part of" style="edgeLabel;html=1;align=center;verticalAlign=middle;resizable=0;points=[];" parent="uWBuWXja9LEsh-4lgXYK-21" vertex="1" connectable="0">
          <mxGeometry x="-0.2033" y="-2" relative="1" as="geometry">
            <mxPoint y="-2" as="offset" />
          </mxGeometry>
        </mxCell>
        <mxCell id="uWBuWXja9LEsh-4lgXYK-45" value="" style="group" parent="1" vertex="1" connectable="0">
          <mxGeometry x="-40" y="405" width="250" height="200" as="geometry" />
        </mxCell>
        <mxCell id="XFziTfGbW6GDm8dm62b6-40" value="Driver" style="shape=table;startSize=30;container=1;collapsible=1;childLayout=tableLayout;fixedRows=1;rowLines=0;fontStyle=1;align=center;resizeLast=1;" parent="uWBuWXja9LEsh-4lgXYK-45" vertex="1">
          <mxGeometry width="250" height="200" as="geometry">
            <mxRectangle width="80" height="30" as="alternateBounds" />
          </mxGeometry>
        </mxCell>
        <mxCell id="XFziTfGbW6GDm8dm62b6-41" value="" style="shape=partialRectangle;collapsible=0;dropTarget=0;pointerEvents=0;fillColor=none;points=[[0,0.5],[1,0.5]];portConstraint=eastwest;top=0;left=0;right=0;bottom=1;" parent="XFziTfGbW6GDm8dm62b6-40" vertex="1">
          <mxGeometry y="30" width="250" height="30" as="geometry" />
        </mxCell>
        <mxCell id="XFziTfGbW6GDm8dm62b6-42" value="PK" style="shape=partialRectangle;overflow=hidden;connectable=0;fillColor=none;top=0;left=0;bottom=0;right=0;fontStyle=1;" parent="XFziTfGbW6GDm8dm62b6-41" vertex="1">
          <mxGeometry width="30" height="30" as="geometry">
            <mxRectangle width="30" height="30" as="alternateBounds" />
          </mxGeometry>
        </mxCell>
        <mxCell id="XFziTfGbW6GDm8dm62b6-43" value="Driver ID" style="shape=partialRectangle;overflow=hidden;connectable=0;fillColor=none;top=0;left=0;bottom=0;right=0;align=left;spacingLeft=6;fontStyle=5;" parent="XFziTfGbW6GDm8dm62b6-41" vertex="1">
          <mxGeometry x="30" width="220" height="30" as="geometry">
            <mxRectangle width="220" height="30" as="alternateBounds" />
          </mxGeometry>
        </mxCell>
        <mxCell id="XFziTfGbW6GDm8dm62b6-44" value="" style="shape=partialRectangle;collapsible=0;dropTarget=0;pointerEvents=0;fillColor=none;points=[[0,0.5],[1,0.5]];portConstraint=eastwest;top=0;left=0;right=0;bottom=0;" parent="XFziTfGbW6GDm8dm62b6-40" vertex="1">
          <mxGeometry y="60" width="250" height="50" as="geometry" />
        </mxCell>
        <mxCell id="XFziTfGbW6GDm8dm62b6-45" value="" style="shape=partialRectangle;overflow=hidden;connectable=0;fillColor=none;top=0;left=0;bottom=0;right=0;" parent="XFziTfGbW6GDm8dm62b6-44" vertex="1">
          <mxGeometry width="30" height="50" as="geometry">
            <mxRectangle width="30" height="50" as="alternateBounds" />
          </mxGeometry>
        </mxCell>
        <mxCell id="XFziTfGbW6GDm8dm62b6-46" value="Driver Name&#xa;    First Name&#xa;    Last Name" style="shape=partialRectangle;overflow=hidden;connectable=0;fillColor=none;top=0;left=0;bottom=0;right=0;align=left;spacingLeft=6;" parent="XFziTfGbW6GDm8dm62b6-44" vertex="1">
          <mxGeometry x="30" width="220" height="50" as="geometry">
            <mxRectangle width="220" height="50" as="alternateBounds" />
          </mxGeometry>
        </mxCell>
        <mxCell id="XFziTfGbW6GDm8dm62b6-47" value="" style="shape=partialRectangle;collapsible=0;dropTarget=0;pointerEvents=0;fillColor=none;points=[[0,0.5],[1,0.5]];portConstraint=eastwest;top=0;left=0;right=0;bottom=0;" parent="XFziTfGbW6GDm8dm62b6-40" vertex="1">
          <mxGeometry y="110" width="250" height="30" as="geometry" />
        </mxCell>
        <mxCell id="XFziTfGbW6GDm8dm62b6-48" value="" style="shape=partialRectangle;overflow=hidden;connectable=0;fillColor=none;top=0;left=0;bottom=0;right=0;" parent="XFziTfGbW6GDm8dm62b6-47" vertex="1">
          <mxGeometry width="30" height="30" as="geometry">
            <mxRectangle width="30" height="30" as="alternateBounds" />
          </mxGeometry>
        </mxCell>
        <mxCell id="XFziTfGbW6GDm8dm62b6-49" value="Driver Phone Number" style="shape=partialRectangle;overflow=hidden;connectable=0;fillColor=none;top=0;left=0;bottom=0;right=0;align=left;spacingLeft=6;" parent="XFziTfGbW6GDm8dm62b6-47" vertex="1">
          <mxGeometry x="30" width="220" height="30" as="geometry">
            <mxRectangle width="220" height="30" as="alternateBounds" />
          </mxGeometry>
        </mxCell>
        <mxCell id="XFziTfGbW6GDm8dm62b6-51" value="DOB" style="shape=partialRectangle;overflow=hidden;connectable=0;fillColor=none;top=0;left=1;bottom=0;right=0;align=left;spacingLeft=6;" parent="uWBuWXja9LEsh-4lgXYK-45" vertex="1">
          <mxGeometry x="30" y="140" width="220" height="30" as="geometry">
            <mxRectangle width="220" height="30" as="alternateBounds" />
          </mxGeometry>
        </mxCell>
        <mxCell id="XFziTfGbW6GDm8dm62b6-52" value="Driving Licence Number" style="shape=partialRectangle;overflow=hidden;connectable=0;fillColor=none;top=0;left=1;bottom=0;right=0;align=left;spacingLeft=6;" parent="uWBuWXja9LEsh-4lgXYK-45" vertex="1">
          <mxGeometry x="30" y="170" width="220" height="30" as="geometry">
            <mxRectangle width="220" height="30" as="alternateBounds" />
          </mxGeometry>
        </mxCell>
        <mxCell id="uWBuWXja9LEsh-4lgXYK-46" value="" style="group" parent="1" vertex="1" connectable="0">
          <mxGeometry x="300" y="500" width="250" height="240" as="geometry" />
        </mxCell>
        <mxCell id="C-vyLk0tnHw3VtMMgP7b-13" value="User" style="shape=table;startSize=30;container=1;collapsible=1;childLayout=tableLayout;fixedRows=1;rowLines=0;fontStyle=1;align=center;resizeLast=1;" parent="uWBuWXja9LEsh-4lgXYK-46" vertex="1">
          <mxGeometry width="250" height="240" as="geometry">
            <mxRectangle width="70" height="30" as="alternateBounds" />
          </mxGeometry>
        </mxCell>
        <mxCell id="C-vyLk0tnHw3VtMMgP7b-14" value="" style="shape=partialRectangle;collapsible=0;dropTarget=0;pointerEvents=0;fillColor=none;points=[[0,0.5],[1,0.5]];portConstraint=eastwest;top=0;left=0;right=0;bottom=1;" parent="C-vyLk0tnHw3VtMMgP7b-13" vertex="1">
          <mxGeometry y="30" width="250" height="30" as="geometry" />
        </mxCell>
        <mxCell id="C-vyLk0tnHw3VtMMgP7b-15" value="PK" style="shape=partialRectangle;overflow=hidden;connectable=0;fillColor=none;top=0;left=0;bottom=0;right=0;fontStyle=1;" parent="C-vyLk0tnHw3VtMMgP7b-14" vertex="1">
          <mxGeometry width="30" height="30" as="geometry">
            <mxRectangle width="30" height="30" as="alternateBounds" />
          </mxGeometry>
        </mxCell>
        <mxCell id="C-vyLk0tnHw3VtMMgP7b-16" value="User ID" style="shape=partialRectangle;overflow=hidden;connectable=0;fillColor=none;top=0;left=0;bottom=0;right=0;align=left;spacingLeft=6;fontStyle=5;" parent="C-vyLk0tnHw3VtMMgP7b-14" vertex="1">
          <mxGeometry x="30" width="220" height="30" as="geometry">
            <mxRectangle width="220" height="30" as="alternateBounds" />
          </mxGeometry>
        </mxCell>
        <mxCell id="C-vyLk0tnHw3VtMMgP7b-17" value="" style="shape=partialRectangle;collapsible=0;dropTarget=0;pointerEvents=0;fillColor=none;points=[[0,0.5],[1,0.5]];portConstraint=eastwest;top=0;left=0;right=0;bottom=0;" parent="C-vyLk0tnHw3VtMMgP7b-13" vertex="1">
          <mxGeometry y="60" width="250" height="30" as="geometry" />
        </mxCell>
        <mxCell id="C-vyLk0tnHw3VtMMgP7b-18" value="" style="shape=partialRectangle;overflow=hidden;connectable=0;fillColor=none;top=0;left=0;bottom=0;right=0;" parent="C-vyLk0tnHw3VtMMgP7b-17" vertex="1">
          <mxGeometry width="30" height="30" as="geometry">
            <mxRectangle width="30" height="30" as="alternateBounds" />
          </mxGeometry>
        </mxCell>
        <mxCell id="C-vyLk0tnHw3VtMMgP7b-19" value="Username" style="shape=partialRectangle;overflow=hidden;connectable=0;fillColor=none;top=0;left=0;bottom=0;right=0;align=left;spacingLeft=6;" parent="C-vyLk0tnHw3VtMMgP7b-17" vertex="1">
          <mxGeometry x="30" width="220" height="30" as="geometry">
            <mxRectangle width="220" height="30" as="alternateBounds" />
          </mxGeometry>
        </mxCell>
        <mxCell id="C-vyLk0tnHw3VtMMgP7b-20" value="" style="shape=partialRectangle;collapsible=0;dropTarget=0;pointerEvents=0;fillColor=none;points=[[0,0.5],[1,0.5]];portConstraint=eastwest;top=0;left=0;right=0;bottom=0;" parent="C-vyLk0tnHw3VtMMgP7b-13" vertex="1">
          <mxGeometry y="90" width="250" height="30" as="geometry" />
        </mxCell>
        <mxCell id="C-vyLk0tnHw3VtMMgP7b-21" value="" style="shape=partialRectangle;overflow=hidden;connectable=0;fillColor=none;top=0;left=0;bottom=0;right=0;" parent="C-vyLk0tnHw3VtMMgP7b-20" vertex="1">
          <mxGeometry width="30" height="30" as="geometry">
            <mxRectangle width="30" height="30" as="alternateBounds" />
          </mxGeometry>
        </mxCell>
        <mxCell id="C-vyLk0tnHw3VtMMgP7b-22" value="Email" style="shape=partialRectangle;overflow=hidden;connectable=0;fillColor=none;top=0;left=0;bottom=0;right=0;align=left;spacingLeft=6;" parent="C-vyLk0tnHw3VtMMgP7b-20" vertex="1">
          <mxGeometry x="30" width="220" height="30" as="geometry">
            <mxRectangle width="220" height="30" as="alternateBounds" />
          </mxGeometry>
        </mxCell>
        <mxCell id="XFziTfGbW6GDm8dm62b6-33" value="Password" style="shape=partialRectangle;overflow=hidden;connectable=0;fillColor=none;top=0;left=1;bottom=0;right=0;align=left;spacingLeft=6;" parent="uWBuWXja9LEsh-4lgXYK-46" vertex="1">
          <mxGeometry x="30" y="120" width="220" height="30" as="geometry">
            <mxRectangle width="220" height="30" as="alternateBounds" />
          </mxGeometry>
        </mxCell>
        <mxCell id="XFziTfGbW6GDm8dm62b6-50" value="Driving Licence Number" style="shape=partialRectangle;overflow=hidden;connectable=0;fillColor=none;top=0;left=1;bottom=0;right=0;align=left;spacingLeft=6;" parent="uWBuWXja9LEsh-4lgXYK-46" vertex="1">
          <mxGeometry x="30" y="150" width="220" height="30" as="geometry">
            <mxRectangle width="220" height="30" as="alternateBounds" />
          </mxGeometry>
        </mxCell>
        <mxCell id="uWBuWXja9LEsh-4lgXYK-42" value="DOB" style="shape=partialRectangle;overflow=hidden;connectable=0;fillColor=none;top=0;left=1;bottom=0;right=0;align=left;spacingLeft=6;" parent="uWBuWXja9LEsh-4lgXYK-46" vertex="1">
          <mxGeometry x="30" y="180" width="220" height="30" as="geometry">
            <mxRectangle width="220" height="30" as="alternateBounds" />
          </mxGeometry>
        </mxCell>
        <mxCell id="uWBuWXja9LEsh-4lgXYK-43" value="Home Address" style="shape=partialRectangle;overflow=hidden;connectable=0;fillColor=none;top=0;left=1;bottom=0;right=0;align=left;spacingLeft=6;" parent="uWBuWXja9LEsh-4lgXYK-46" vertex="1">
          <mxGeometry x="30" y="210" width="220" height="30" as="geometry">
            <mxRectangle width="220" height="30" as="alternateBounds" />
          </mxGeometry>
        </mxCell>
        <mxCell id="XFziTfGbW6GDm8dm62b6-8" value="Booking" style="shape=table;startSize=40;container=1;collapsible=1;childLayout=tableLayout;fixedRows=1;rowLines=0;fontStyle=1;align=center;resizeLast=1;" parent="1" vertex="1">
          <mxGeometry x="620" y="230" width="250" height="250" as="geometry" />
        </mxCell>
        <mxCell id="XFziTfGbW6GDm8dm62b6-9" value="" style="shape=partialRectangle;collapsible=0;dropTarget=0;pointerEvents=0;fillColor=none;points=[[0,0.5],[1,0.5]];portConstraint=eastwest;top=0;left=0;right=0;bottom=1;" parent="XFziTfGbW6GDm8dm62b6-8" vertex="1">
          <mxGeometry y="40" width="250" height="30" as="geometry" />
        </mxCell>
        <mxCell id="XFziTfGbW6GDm8dm62b6-10" value="PK" style="shape=partialRectangle;overflow=hidden;connectable=0;fillColor=none;top=0;left=0;bottom=0;right=0;fontStyle=1;" parent="XFziTfGbW6GDm8dm62b6-9" vertex="1">
          <mxGeometry width="30" height="30" as="geometry">
            <mxRectangle width="30" height="30" as="alternateBounds" />
          </mxGeometry>
        </mxCell>
        <mxCell id="XFziTfGbW6GDm8dm62b6-11" value="Booking ID" style="shape=partialRectangle;overflow=hidden;connectable=0;fillColor=none;top=0;left=0;bottom=0;right=0;align=left;spacingLeft=6;fontStyle=5;" parent="XFziTfGbW6GDm8dm62b6-9" vertex="1">
          <mxGeometry x="30" width="220" height="30" as="geometry">
            <mxRectangle width="220" height="30" as="alternateBounds" />
          </mxGeometry>
        </mxCell>
        <mxCell id="XFziTfGbW6GDm8dm62b6-12" value="" style="shape=partialRectangle;collapsible=0;dropTarget=0;pointerEvents=0;fillColor=none;points=[[0,0.5],[1,0.5]];portConstraint=eastwest;top=0;left=0;right=0;bottom=0;" parent="XFziTfGbW6GDm8dm62b6-8" vertex="1">
          <mxGeometry y="70" width="250" height="30" as="geometry" />
        </mxCell>
        <mxCell id="XFziTfGbW6GDm8dm62b6-13" value="" style="shape=partialRectangle;overflow=hidden;connectable=0;fillColor=none;top=0;left=0;bottom=0;right=0;" parent="XFziTfGbW6GDm8dm62b6-12" vertex="1">
          <mxGeometry width="30" height="30" as="geometry">
            <mxRectangle width="30" height="30" as="alternateBounds" />
          </mxGeometry>
        </mxCell>
        <mxCell id="XFziTfGbW6GDm8dm62b6-14" value="Start Date" style="shape=partialRectangle;overflow=hidden;connectable=0;fillColor=none;top=0;left=0;bottom=0;right=0;align=left;spacingLeft=6;" parent="XFziTfGbW6GDm8dm62b6-12" vertex="1">
          <mxGeometry x="30" width="220" height="30" as="geometry">
            <mxRectangle width="220" height="30" as="alternateBounds" />
          </mxGeometry>
        </mxCell>
        <mxCell id="XFziTfGbW6GDm8dm62b6-19" value="End Date" style="shape=partialRectangle;overflow=hidden;connectable=0;fillColor=none;top=0;left=1;bottom=0;right=0;align=left;spacingLeft=6;perimeterSpacing=0;strokeWidth=1;strokeColor=default;" parent="1" vertex="1">
          <mxGeometry x="650" y="330" width="220" height="30" as="geometry">
            <mxRectangle width="220" height="30" as="alternateBounds" />
          </mxGeometry>
        </mxCell>
        <mxCell id="XFziTfGbW6GDm8dm62b6-27" value="/Duration" style="shape=partialRectangle;overflow=hidden;connectable=0;fillColor=none;top=0;left=1;bottom=0;right=0;align=left;spacingLeft=6;" parent="1" vertex="1">
          <mxGeometry x="650" y="390" width="220" height="30" as="geometry">
            <mxRectangle width="220" height="30" as="alternateBounds" />
          </mxGeometry>
        </mxCell>
        <mxCell id="XFziTfGbW6GDm8dm62b6-30" value="/Total Cost" style="shape=partialRectangle;overflow=hidden;connectable=0;fillColor=none;top=0;left=1;bottom=0;right=0;align=left;spacingLeft=6;fontStyle=0" parent="1" vertex="1">
          <mxGeometry x="650" y="450" width="220" height="30" as="geometry">
            <mxRectangle width="220" height="30" as="alternateBounds" />
          </mxGeometry>
        </mxCell>
        <mxCell id="uWBuWXja9LEsh-4lgXYK-41" value="Has Extra Insurance" style="shape=partialRectangle;overflow=hidden;connectable=0;fillColor=none;top=0;left=1;bottom=0;right=0;align=left;spacingLeft=6;" parent="1" vertex="1">
          <mxGeometry x="650" y="360" width="220" height="30" as="geometry">
            <mxRectangle width="220" height="30" as="alternateBounds" />
          </mxGeometry>
        </mxCell>
        <mxCell id="uWBuWXja9LEsh-4lgXYK-44" value="/Discount Applicable" style="shape=partialRectangle;overflow=hidden;connectable=0;fillColor=none;top=0;left=1;bottom=0;right=0;align=left;spacingLeft=6;" parent="1" vertex="1">
          <mxGeometry x="650" y="420" width="220" height="30" as="geometry">
            <mxRectangle width="220" height="30" as="alternateBounds" />
          </mxGeometry>
        </mxCell>
        <mxCell id="1k9v6xgg7z2QlEdVDeC4-6" value="*" style="text;html=1;strokeColor=none;fillColor=none;align=center;verticalAlign=middle;whiteSpace=wrap;rounded=0;" vertex="1" parent="1">
          <mxGeometry x="460" y="110" width="20" height="30" as="geometry" />
        </mxCell>
        <mxCell id="1k9v6xgg7z2QlEdVDeC4-9" value="*" style="text;html=1;strokeColor=none;fillColor=none;align=center;verticalAlign=middle;whiteSpace=wrap;rounded=0;" vertex="1" parent="1">
          <mxGeometry x="540" y="110" width="20" height="30" as="geometry" />
        </mxCell>
        <mxCell id="1k9v6xgg7z2QlEdVDeC4-10" value="0..1" style="text;html=1;strokeColor=none;fillColor=none;align=center;verticalAlign=middle;whiteSpace=wrap;rounded=0;" vertex="1" parent="1">
          <mxGeometry x="250" y="210" width="20" height="30" as="geometry" />
        </mxCell>
        <mxCell id="1k9v6xgg7z2QlEdVDeC4-11" value="1" style="text;html=1;strokeColor=none;fillColor=none;align=center;verticalAlign=middle;whiteSpace=wrap;rounded=0;" vertex="1" parent="1">
          <mxGeometry x="250" y="250" width="20" height="30" as="geometry" />
        </mxCell>
        <mxCell id="1k9v6xgg7z2QlEdVDeC4-12" value="*" style="text;html=1;strokeColor=none;fillColor=none;align=center;verticalAlign=middle;whiteSpace=wrap;rounded=0;" vertex="1" parent="1">
          <mxGeometry x="370" y="-40" width="20" height="30" as="geometry" />
        </mxCell>
        <mxCell id="1k9v6xgg7z2QlEdVDeC4-13" value="1" style="text;html=1;strokeColor=none;fillColor=none;align=center;verticalAlign=middle;whiteSpace=wrap;rounded=0;" vertex="1" parent="1">
          <mxGeometry x="300" y="-40" width="20" height="30" as="geometry" />
        </mxCell>
        <mxCell id="1k9v6xgg7z2QlEdVDeC4-14" value="1" style="text;html=1;strokeColor=none;fillColor=none;align=center;verticalAlign=middle;whiteSpace=wrap;rounded=0;" vertex="1" parent="1">
          <mxGeometry x="720" width="20" height="30" as="geometry" />
        </mxCell>
        <mxCell id="1k9v6xgg7z2QlEdVDeC4-15" value="*" style="text;html=1;strokeColor=none;fillColor=none;align=center;verticalAlign=middle;whiteSpace=wrap;rounded=0;" vertex="1" parent="1">
          <mxGeometry x="780" y="200" width="20" height="30" as="geometry" />
        </mxCell>
        <mxCell id="1k9v6xgg7z2QlEdVDeC4-16" value="1" style="text;html=1;strokeColor=none;fillColor=none;align=center;verticalAlign=middle;whiteSpace=wrap;rounded=0;" vertex="1" parent="1">
          <mxGeometry x="150" y="300" width="20" height="30" as="geometry" />
        </mxCell>
        <mxCell id="1k9v6xgg7z2QlEdVDeC4-17" value="1" style="text;html=1;strokeColor=none;fillColor=none;align=center;verticalAlign=middle;whiteSpace=wrap;rounded=0;" vertex="1" parent="1">
          <mxGeometry x="30" y="300" width="20" height="30" as="geometry" />
        </mxCell>
        <mxCell id="1k9v6xgg7z2QlEdVDeC4-18" value="*" style="text;html=1;strokeColor=none;fillColor=none;align=center;verticalAlign=middle;whiteSpace=wrap;rounded=0;" vertex="1" parent="1">
          <mxGeometry x="590" y="290" width="20" height="30" as="geometry" />
        </mxCell>
        <mxCell id="1k9v6xgg7z2QlEdVDeC4-19" value="*" style="text;html=1;strokeColor=none;fillColor=none;align=center;verticalAlign=middle;whiteSpace=wrap;rounded=0;" vertex="1" parent="1">
          <mxGeometry x="590" y="320" width="20" height="30" as="geometry" />
        </mxCell>
        <mxCell id="1k9v6xgg7z2QlEdVDeC4-20" value="1" style="text;html=1;strokeColor=none;fillColor=none;align=center;verticalAlign=middle;whiteSpace=wrap;rounded=0;" vertex="1" parent="1">
          <mxGeometry x="600" y="405" width="20" height="30" as="geometry" />
        </mxCell>
        <mxCell id="1k9v6xgg7z2QlEdVDeC4-21" value="*" style="text;html=1;strokeColor=none;fillColor=none;align=center;verticalAlign=middle;whiteSpace=wrap;rounded=0;" vertex="1" parent="1">
          <mxGeometry x="545" y="405" width="20" height="30" as="geometry" />
        </mxCell>
        <mxCell id="1k9v6xgg7z2QlEdVDeC4-22" value="1" style="text;html=1;strokeColor=none;fillColor=none;align=center;verticalAlign=middle;whiteSpace=wrap;rounded=0;" vertex="1" parent="1">
          <mxGeometry x="210" y="405" width="20" height="30" as="geometry" />
        </mxCell>
        <mxCell id="1k9v6xgg7z2QlEdVDeC4-23" value="*" style="text;html=1;strokeColor=none;fillColor=none;align=center;verticalAlign=middle;whiteSpace=wrap;rounded=0;" vertex="1" parent="1">
          <mxGeometry x="270" y="405" width="20" height="30" as="geometry" />
        </mxCell>
        <mxCell id="1k9v6xgg7z2QlEdVDeC4-24" value="*" style="text;html=1;strokeColor=none;fillColor=none;align=center;verticalAlign=middle;whiteSpace=wrap;rounded=0;" vertex="1" parent="1">
          <mxGeometry x="730" y="490" width="20" height="30" as="geometry" />
        </mxCell>
        <mxCell id="1k9v6xgg7z2QlEdVDeC4-25" value="1" style="text;html=1;strokeColor=none;fillColor=none;align=center;verticalAlign=middle;whiteSpace=wrap;rounded=0;" vertex="1" parent="1">
          <mxGeometry x="560" y="580" width="20" height="30" as="geometry" />
        </mxCell>
        <mxCell id="C-vyLk0tnHw3VtMMgP7b-2" value="Vehicle" style="shape=table;startSize=30;container=1;collapsible=1;childLayout=tableLayout;fixedRows=1;rowLines=0;fontStyle=1;align=center;resizeLast=1;" parent="1" vertex="1">
          <mxGeometry x="400" y="-50" width="320" height="150" as="geometry" />
        </mxCell>
        <mxCell id="C-vyLk0tnHw3VtMMgP7b-3" value="" style="shape=partialRectangle;collapsible=0;dropTarget=0;pointerEvents=0;fillColor=none;points=[[0,0.5],[1,0.5]];portConstraint=eastwest;top=0;left=0;right=0;bottom=1;" parent="C-vyLk0tnHw3VtMMgP7b-2" vertex="1">
          <mxGeometry y="30" width="320" height="30" as="geometry" />
        </mxCell>
        <mxCell id="C-vyLk0tnHw3VtMMgP7b-4" value="PK" style="shape=partialRectangle;overflow=hidden;connectable=0;fillColor=none;top=0;left=0;bottom=0;right=0;fontStyle=1;" parent="C-vyLk0tnHw3VtMMgP7b-3" vertex="1">
          <mxGeometry width="20" height="30" as="geometry">
            <mxRectangle width="20" height="30" as="alternateBounds" />
          </mxGeometry>
        </mxCell>
        <mxCell id="C-vyLk0tnHw3VtMMgP7b-5" value="Vehicle ID" style="shape=partialRectangle;overflow=hidden;connectable=0;fillColor=none;top=0;left=0;bottom=0;right=0;align=left;spacingLeft=6;fontStyle=5;" parent="C-vyLk0tnHw3VtMMgP7b-3" vertex="1">
          <mxGeometry x="20" width="300" height="30" as="geometry">
            <mxRectangle width="300" height="30" as="alternateBounds" />
          </mxGeometry>
        </mxCell>
        <mxCell id="c1ZAIc3Db-NzH7cgD-ow-2" value="Off Peak/Standard Cost" style="shape=partialRectangle;overflow=hidden;connectable=0;fillColor=none;top=0;left=1;bottom=0;right=0;align=left;spacingLeft=6;fontStyle=0;" parent="1" vertex="1">
          <mxGeometry x="420" y="10" width="300" height="30" as="geometry">
            <mxRectangle width="300" height="30" as="alternateBounds" />
          </mxGeometry>
        </mxCell>
        <mxCell id="uWBuWXja9LEsh-4lgXYK-38" value="Peak time/Adjusted Cost" style="shape=partialRectangle;overflow=hidden;connectable=0;fillColor=none;top=0;left=1;bottom=0;right=0;align=left;spacingLeft=6;fontStyle=0;" parent="1" vertex="1">
          <mxGeometry x="420" y="40" width="300" height="30" as="geometry">
            <mxRectangle width="300" height="30" as="alternateBounds" />
          </mxGeometry>
        </mxCell>
        <mxCell id="1k9v6xgg7z2QlEdVDeC4-26" value="Availability" style="shape=partialRectangle;overflow=hidden;connectable=0;fillColor=none;top=0;left=1;bottom=0;right=0;align=left;spacingLeft=6;fontStyle=0;" vertex="1" parent="1">
          <mxGeometry x="420" y="70" width="300" height="30" as="geometry">
            <mxRectangle width="300" height="30" as="alternateBounds" />
          </mxGeometry>
        </mxCell>
        <mxCell id="uWBuWXja9LEsh-4lgXYK-49" value="" style="group" parent="1" vertex="1" connectable="0">
          <mxGeometry x="-30" y="-50" width="320" height="150" as="geometry" />
        </mxCell>
        <mxCell id="uWBuWXja9LEsh-4lgXYK-3" value="Name" style="shape=partialRectangle;overflow=hidden;connectable=0;fillColor=none;top=0;left=1;bottom=0;right=0;align=left;spacingLeft=6;fontStyle=0;" parent="uWBuWXja9LEsh-4lgXYK-49" vertex="1">
          <mxGeometry x="20" y="60" width="300" height="30" as="geometry">
            <mxRectangle width="300" height="30" as="alternateBounds" />
          </mxGeometry>
        </mxCell>
        <mxCell id="uWBuWXja9LEsh-4lgXYK-30" value="Number of Seats" style="shape=partialRectangle;overflow=hidden;connectable=0;fillColor=none;top=0;left=1;bottom=0;right=0;align=left;spacingLeft=6;fontStyle=0;" parent="uWBuWXja9LEsh-4lgXYK-49" vertex="1">
          <mxGeometry x="20" y="90" width="300" height="30" as="geometry">
            <mxRectangle width="300" height="30" as="alternateBounds" />
          </mxGeometry>
        </mxCell>
        <mxCell id="uWBuWXja9LEsh-4lgXYK-31" value="Transmission Type" style="shape=partialRectangle;overflow=hidden;connectable=0;fillColor=none;top=0;left=1;bottom=0;right=0;align=left;spacingLeft=6;fontStyle=0;" parent="uWBuWXja9LEsh-4lgXYK-49" vertex="1">
          <mxGeometry x="20" y="120" width="300" height="30" as="geometry">
            <mxRectangle width="300" height="30" as="alternateBounds" />
          </mxGeometry>
        </mxCell>
        <mxCell id="ukf21X1gdMOUIVegYiUN-1" value="Engine Size" style="shape=partialRectangle;overflow=hidden;connectable=0;fillColor=none;top=0;left=1;bottom=0;right=0;align=left;spacingLeft=6;fontStyle=0;" parent="1" vertex="1">
          <mxGeometry x="-10" y="100" width="300" height="30" as="geometry">
            <mxRectangle width="300" height="30" as="alternateBounds" />
          </mxGeometry>
        </mxCell>
        <mxCell id="uWBuWXja9LEsh-4lgXYK-23" value="Vehicle Type" style="shape=table;startSize=30;container=1;collapsible=1;childLayout=tableLayout;fixedRows=1;rowLines=0;fontStyle=1;align=center;resizeLast=1;" parent="1" vertex="1">
          <mxGeometry x="-30" y="-50" width="320" height="240" as="geometry" />
        </mxCell>
        <mxCell id="uWBuWXja9LEsh-4lgXYK-24" value="" style="shape=partialRectangle;collapsible=0;dropTarget=0;pointerEvents=0;fillColor=none;points=[[0,0.5],[1,0.5]];portConstraint=eastwest;top=0;left=0;right=0;bottom=1;" parent="uWBuWXja9LEsh-4lgXYK-23" vertex="1">
          <mxGeometry y="30" width="320" height="30" as="geometry" />
        </mxCell>
        <mxCell id="uWBuWXja9LEsh-4lgXYK-25" value="PK" style="shape=partialRectangle;overflow=hidden;connectable=0;fillColor=none;top=0;left=0;bottom=0;right=0;fontStyle=1;" parent="uWBuWXja9LEsh-4lgXYK-24" vertex="1">
          <mxGeometry width="20" height="30" as="geometry">
            <mxRectangle width="20" height="30" as="alternateBounds" />
          </mxGeometry>
        </mxCell>
        <mxCell id="uWBuWXja9LEsh-4lgXYK-26" value="Vehicle Type ID" style="shape=partialRectangle;overflow=hidden;connectable=0;fillColor=none;top=0;left=0;bottom=0;right=0;align=left;spacingLeft=6;fontStyle=5;" parent="uWBuWXja9LEsh-4lgXYK-24" vertex="1">
          <mxGeometry x="20" width="300" height="30" as="geometry">
            <mxRectangle width="300" height="30" as="alternateBounds" />
          </mxGeometry>
        </mxCell>
        <mxCell id="1k9v6xgg7z2QlEdVDeC4-28" value="Brand" style="shape=partialRectangle;overflow=hidden;connectable=0;fillColor=none;top=0;left=1;bottom=0;right=0;align=left;spacingLeft=6;fontStyle=0;" vertex="1" parent="1">
          <mxGeometry x="-10" y="130" width="300" height="30" as="geometry">
            <mxRectangle width="300" height="30" as="alternateBounds" />
          </mxGeometry>
        </mxCell>
        <mxCell id="1k9v6xgg7z2QlEdVDeC4-29" value="Classification" style="shape=partialRectangle;overflow=hidden;connectable=0;fillColor=none;top=0;left=1;bottom=0;right=0;align=left;spacingLeft=6;fontStyle=0;" vertex="1" parent="1">
          <mxGeometry x="-10" y="160" width="300" height="30" as="geometry">
            <mxRectangle width="300" height="30" as="alternateBounds" />
          </mxGeometry>
        </mxCell>
      </root>
    </mxGraphModel>
  </diagram>
</mxfile>
